<svg width="1214" height="400" viewBox="0 0 1214 400" fill="none" xmlns="http://www.w3.org/2000/svg">
<mask id="path-1-outside-1_113_236" maskUnits="userSpaceOnUse" x="0" y="0" width="1214" height="400" fill="black">
<rect fill="white" width="1214" height="400"/>
<path d="M1.73708 5.84397H83.9731C144.957 5.84397 156.969 52.968 157.431 118.572C157.431 186.024 144.957 234.072 82.5871 234.072L29.4571 234.534V393H1.73708V5.84397ZM83.0491 20.628H29.4571V219.288H83.0491C122.781 219.288 130.173 159.228 130.173 119.496C130.173 78.84 122.319 21.552 83.0491 20.628ZM212.287 377.754L293.599 372.21V393H184.567V5.84397H212.287V377.754ZM298.118 393L374.348 5.84397H398.372L468.134 393H439.028L421.01 289.05L333.692 286.74L315.674 393H298.118ZM336.002 271.032L417.314 268.722L376.658 34.95L336.002 271.032ZM459.509 5.84397H491.849L566.693 201.732L631.835 5.84397H649.391L571.775 215.13V393H543.131V219.288L459.509 5.84397ZM707.989 377.754L789.301 372.21V393H680.269V5.84397H707.989V377.754ZM819.014 393V5.84397H846.734V393H819.014ZM881.111 272.418H908.369V304.758C908.369 348.648 928.235 382.836 958.265 382.836C992.453 382.836 1009.08 352.344 1008.16 307.068C1006.31 204.042 883.421 211.434 883.421 94.548C883.421 39.57 914.375 1.22398 961.961 1.22398C1007.7 1.22398 1034.03 34.488 1034.03 97.32V125.502H1006.77V90.39C1006.77 45.114 991.991 16.47 961.499 16.47C927.773 16.47 910.679 49.734 911.603 89.466C914.375 192.954 1036.34 187.872 1036.34 300.138C1036.34 363.894 1008.16 398.082 958.727 398.082C912.527 398.082 881.111 366.666 881.111 301.524V272.418ZM1044.86 26.634V5.84397H1212.57V26.634L1141.88 20.628V393H1114.16V20.628L1044.86 26.634Z"/>
</mask>
<path d="M1.73708 5.84397V4.84397H0.737076V5.84397H1.73708ZM157.431 118.572H158.431L158.431 118.565L157.431 118.572ZM82.5871 234.072V233.072L82.5784 233.072L82.5871 234.072ZM29.4571 234.534L29.4484 233.534L28.4571 233.543V234.534H29.4571ZM29.4571 393V394H30.4571V393H29.4571ZM1.73708 393H0.737076V394H1.73708V393ZM83.0491 20.628L83.0726 19.6283L83.0609 19.628H83.0491V20.628ZM29.4571 20.628V19.628H28.4571V20.628H29.4571ZM29.4571 219.288H28.4571V220.288H29.4571V219.288ZM1.73708 5.84397V6.84397H83.9731V5.84397V4.84397H1.73708V5.84397ZM83.9731 5.84397V6.84397C99.091 6.84397 111.098 9.76407 120.625 15.1044C130.144 20.4412 137.251 28.2308 142.516 38.078C153.074 57.8251 156.2 85.7873 156.431 118.579L157.431 118.572L158.431 118.565C158.2 85.7527 155.089 57.3508 144.28 37.135C138.861 27.0006 131.501 18.909 121.603 13.3599C111.71 7.81437 99.3472 4.84397 83.9731 4.84397V5.84397ZM157.431 118.572H156.431C156.431 152.285 153.304 180.939 142.516 201.146C137.136 211.223 129.856 219.185 120.106 224.638C110.348 230.094 98.052 233.072 82.5871 233.072V234.072V235.072C98.3072 235.072 110.959 232.044 121.082 226.383C131.212 220.719 138.745 212.454 144.28 202.087C155.321 181.407 158.431 152.311 158.431 118.572H157.431ZM82.5871 234.072L82.5784 233.072L29.4484 233.534L29.4571 234.534L29.4658 235.534L82.5958 235.072L82.5871 234.072ZM29.4571 234.534H28.4571V393H29.4571H30.4571V234.534H29.4571ZM29.4571 393V392H1.73708V393V394H29.4571V393ZM1.73708 393H2.73708V5.84397H1.73708H0.737076V393H1.73708ZM83.0491 20.628V19.628H29.4571V20.628V21.628H83.0491V20.628ZM29.4571 20.628H28.4571V219.288H29.4571H30.4571V20.628H29.4571ZM29.4571 219.288V220.288H83.0491V219.288V218.288H29.4571V219.288ZM83.0491 219.288V220.288C103.577 220.288 115.6 204.722 122.457 184.614C129.325 164.477 131.173 139.398 131.173 119.496H130.173H129.173C129.173 139.326 127.325 164.143 120.564 183.969C113.793 203.824 102.253 218.288 83.0491 218.288V219.288ZM130.173 119.496H131.173C131.173 99.1294 129.209 74.5095 122.281 54.8304C115.358 35.1677 103.336 20.105 83.0726 19.6283L83.0491 20.628L83.0256 21.6277C102.032 22.0749 113.572 36.1183 120.394 55.4946C127.21 74.8545 129.173 99.2066 129.173 119.496H130.173ZM212.287 377.754H211.287V378.824L212.355 378.752L212.287 377.754ZM293.599 372.21H294.599V371.139L293.531 371.212L293.599 372.21ZM293.599 393V394H294.599V393H293.599ZM184.567 393H183.567V394H184.567V393ZM184.567 5.84397V4.84397H183.567V5.84397H184.567ZM212.287 5.84397H213.287V4.84397H212.287V5.84397ZM212.287 377.754L212.355 378.752L293.667 373.208L293.599 372.21L293.531 371.212L212.219 376.756L212.287 377.754ZM293.599 372.21H292.599V393H293.599H294.599V372.21H293.599ZM293.599 393V392H184.567V393V394H293.599V393ZM184.567 393H185.567V5.84397H184.567H183.567V393H184.567ZM184.567 5.84397V6.84397H212.287V5.84397V4.84397H184.567V5.84397ZM212.287 5.84397H211.287V377.754H212.287H213.287V5.84397H212.287ZM298.118 393L297.137 392.807L296.902 394H298.118V393ZM374.348 5.84397V4.84397H373.526L373.367 5.65078L374.348 5.84397ZM398.372 5.84397L399.357 5.66664L399.208 4.84397H398.372V5.84397ZM468.134 393V394H469.331L469.119 392.823L468.134 393ZM439.028 393L438.043 393.171L438.187 394H439.028V393ZM421.01 289.05L421.996 288.879L421.856 288.072L421.037 288.05L421.01 289.05ZM333.692 286.74L333.719 285.74L332.852 285.717L332.707 286.573L333.692 286.74ZM315.674 393V394H316.519L316.66 393.167L315.674 393ZM336.002 271.032L335.017 270.862L334.81 272.066L336.031 272.032L336.002 271.032ZM417.314 268.722L417.343 269.722L418.498 269.689L418.3 268.551L417.314 268.722ZM376.658 34.95L377.644 34.7786L375.673 34.7803L376.658 34.95ZM298.118 393L299.1 393.193L375.33 6.03716L374.348 5.84397L373.367 5.65078L297.137 392.807L298.118 393ZM374.348 5.84397V6.84397H398.372V5.84397V4.84397H374.348V5.84397ZM398.372 5.84397L397.388 6.02131L467.15 393.177L468.134 393L469.119 392.823L399.357 5.66664L398.372 5.84397ZM468.134 393V392H439.028V393V394H468.134V393ZM439.028 393L440.014 392.829L421.996 288.879L421.01 289.05L420.025 289.221L438.043 393.171L439.028 393ZM421.01 289.05L421.037 288.05L333.719 285.74L333.692 286.74L333.666 287.74L420.984 290.05L421.01 289.05ZM333.692 286.74L332.707 286.573L314.689 392.833L315.674 393L316.66 393.167L334.678 286.907L333.692 286.74ZM315.674 393V392H298.118V393V394H315.674V393ZM336.002 271.032L336.031 272.032L417.343 269.722L417.314 268.722L417.286 267.722L335.974 270.032L336.002 271.032ZM417.314 268.722L418.3 268.551L377.644 34.7786L376.658 34.95L375.673 35.1213L416.329 268.893L417.314 268.722ZM376.658 34.95L375.673 34.7803L335.017 270.862L336.002 271.032L336.988 271.202L377.644 35.1197L376.658 34.95ZM459.509 5.84397V4.84397H458.043L458.578 6.20875L459.509 5.84397ZM491.849 5.84397L492.783 5.48706L492.537 4.84397H491.849V5.84397ZM566.693 201.732L565.758 202.089L566.758 204.705L567.642 202.048L566.693 201.732ZM631.835 5.84397V4.84397H631.113L630.886 5.52842L631.835 5.84397ZM649.391 5.84397L650.328 6.19169L650.828 4.84397H649.391V5.84397ZM571.775 215.13L570.837 214.782L570.775 214.951V215.13H571.775ZM571.775 393V394H572.775V393H571.775ZM543.131 393H542.131V394H543.131V393ZM543.131 219.288H544.131V219.099L544.062 218.923L543.131 219.288ZM459.509 5.84397V6.84397H491.849V5.84397V4.84397H459.509V5.84397ZM491.849 5.84397L490.914 6.20089L565.758 202.089L566.693 201.732L567.627 201.375L492.783 5.48706L491.849 5.84397ZM566.693 201.732L567.642 202.048L632.784 6.15953L631.835 5.84397L630.886 5.52842L565.744 201.416L566.693 201.732ZM631.835 5.84397V6.84397H649.391V5.84397V4.84397H631.835V5.84397ZM649.391 5.84397L648.453 5.49625L570.837 214.782L571.775 215.13L572.712 215.478L650.328 6.19169L649.391 5.84397ZM571.775 215.13H570.775V393H571.775H572.775V215.13H571.775ZM571.775 393V392H543.131V393V394H571.775V393ZM543.131 393H544.131V219.288H543.131H542.131V393H543.131ZM543.131 219.288L544.062 218.923L460.44 5.47919L459.509 5.84397L458.578 6.20875L542.2 219.653L543.131 219.288ZM707.989 377.754H706.989V378.824L708.057 378.752L707.989 377.754ZM789.301 372.21H790.301V371.139L789.233 371.212L789.301 372.21ZM789.301 393V394H790.301V393H789.301ZM680.269 393H679.269V394H680.269V393ZM680.269 5.84397V4.84397H679.269V5.84397H680.269ZM707.989 5.84397H708.989V4.84397H707.989V5.84397ZM707.989 377.754L708.057 378.752L789.369 373.208L789.301 372.21L789.233 371.212L707.921 376.756L707.989 377.754ZM789.301 372.21H788.301V393H789.301H790.301V372.21H789.301ZM789.301 393V392H680.269V393V394H789.301V393ZM680.269 393H681.269V5.84397H680.269H679.269V393H680.269ZM680.269 5.84397V6.84397H707.989V5.84397V4.84397H680.269V5.84397ZM707.989 5.84397H706.989V377.754H707.989H708.989V5.84397H707.989ZM819.014 393H818.014V394H819.014V393ZM819.014 5.84397V4.84397H818.014V5.84397H819.014ZM846.734 5.84397H847.734V4.84397H846.734V5.84397ZM846.734 393V394H847.734V393H846.734ZM819.014 393H820.014V5.84397H819.014H818.014V393H819.014ZM819.014 5.84397V6.84397H846.734V5.84397V4.84397H819.014V5.84397ZM846.734 5.84397H845.734V393H846.734H847.734V5.84397H846.734ZM846.734 393V392H819.014V393V394H846.734V393ZM881.111 272.418V271.418H880.111V272.418H881.111ZM908.369 272.418H909.369V271.418H908.369V272.418ZM1008.16 307.068L1007.16 307.086L1007.16 307.088L1008.16 307.068ZM1034.03 125.502V126.502H1035.03V125.502H1034.03ZM1006.77 125.502H1005.77V126.502H1006.77V125.502ZM911.603 89.466L910.603 89.4892L910.603 89.4928L911.603 89.466ZM881.111 272.418V273.418H908.369V272.418V271.418H881.111V272.418ZM908.369 272.418H907.369V304.758H908.369H909.369V272.418H908.369ZM908.369 304.758H907.369C907.369 326.839 912.364 346.554 921.206 360.784C930.056 375.026 942.815 383.836 958.265 383.836V382.836V381.836C943.684 381.836 931.495 373.552 922.905 359.728C914.306 345.891 909.369 326.567 909.369 304.758H908.369ZM958.265 382.836V383.836C975.712 383.836 988.733 376.028 997.227 362.461C1005.69 348.95 1009.62 329.789 1009.16 307.048L1008.16 307.068L1007.16 307.088C1007.62 329.623 1003.7 348.346 995.532 361.4C987.394 374.398 975.005 381.836 958.265 381.836V382.836ZM1008.16 307.068L1009.16 307.05C1008.23 255.02 976.644 230.839 945.735 205.235C930.255 192.412 914.943 179.241 903.484 162.023C892.044 144.835 884.421 123.574 884.421 94.548H883.421H882.421C882.421 123.965 890.158 145.612 901.819 163.132C913.46 180.622 928.986 193.958 944.46 206.776C975.459 232.454 1006.25 256.09 1007.16 307.086L1008.16 307.068ZM883.421 94.548H884.421C884.421 67.2398 892.108 44.151 905.615 27.9086C919.108 11.6827 938.459 2.22398 961.961 2.22398V1.22398V0.223976C937.876 0.223976 917.957 9.93822 904.077 26.6298C890.21 43.3049 882.421 66.8781 882.421 94.548H883.421ZM961.961 1.22398V2.22398C984.561 2.22398 1002.27 10.4269 1014.35 26.3154C1026.47 42.2457 1033.03 66.0227 1033.03 97.32H1034.03H1035.03C1035.03 65.7853 1028.43 41.5142 1015.94 25.1045C1003.43 8.6531 985.098 0.223976 961.961 0.223976V1.22398ZM1034.03 97.32H1033.03V125.502H1034.03H1035.03V97.32H1034.03ZM1034.03 125.502V124.502H1006.77V125.502V126.502H1034.03V125.502ZM1006.77 125.502H1007.77V90.39H1006.77H1005.77V125.502H1006.77ZM1006.77 90.39H1007.77C1007.77 67.6697 1004.07 48.9853 996.434 35.9462C988.762 22.8441 977.127 15.47 961.499 15.47V16.47V17.47C976.362 17.47 987.365 24.4179 994.708 36.9568C1002.09 49.5586 1005.77 67.8343 1005.77 90.39H1006.77ZM961.499 16.47V15.47C944.249 15.47 931.243 24.001 922.711 37.5352C914.202 51.0319 910.138 69.4921 910.603 89.4892L911.603 89.466L912.602 89.4427C912.143 69.7079 916.164 51.67 924.403 38.6018C932.618 25.5709 945.022 17.47 961.499 17.47V16.47ZM911.603 89.466L910.603 89.4928C912.002 141.742 943.57 166.61 974.372 192.278C989.799 205.134 1005.03 218.176 1016.41 234.972C1027.78 251.737 1035.34 272.274 1035.34 300.138H1036.34H1037.34C1037.34 271.869 1029.66 250.941 1018.07 233.85C1006.5 216.79 991.064 203.585 975.652 190.742C944.777 165.013 913.975 140.678 912.602 89.4392L911.603 89.466ZM1036.34 300.138H1035.34C1035.34 331.888 1028.32 356.118 1015.29 372.393C1002.29 388.634 983.194 397.082 958.727 397.082V398.082V399.082C983.693 399.082 1003.41 390.436 1016.85 373.644C1030.27 356.885 1037.34 332.144 1037.34 300.138H1036.34ZM958.727 398.082V397.082C935.866 397.082 916.761 389.319 903.355 373.583C889.93 357.825 882.111 333.947 882.111 301.524H881.111H880.111C880.111 334.243 888 358.644 901.832 374.88C915.684 391.137 935.387 399.082 958.727 399.082V398.082ZM881.111 301.524H882.111V272.418H881.111H880.111V301.524H881.111ZM1044.86 26.634H1043.86V27.7244L1044.95 27.6302L1044.86 26.634ZM1044.86 5.84397V4.84397H1043.86V5.84397H1044.86ZM1212.57 5.84397H1213.57V4.84397H1212.57V5.84397ZM1212.57 26.634L1212.48 27.6304L1213.57 27.7226V26.634H1212.57ZM1141.88 20.628L1141.97 19.6316L1140.88 19.5394V20.628H1141.88ZM1141.88 393V394H1142.88V393H1141.88ZM1114.16 393H1113.16V394H1114.16V393ZM1114.16 20.628H1115.16V19.5376L1114.07 19.6317L1114.16 20.628ZM1044.86 26.634H1045.86V5.84397H1044.86H1043.86V26.634H1044.86ZM1044.86 5.84397V6.84397H1212.57V5.84397V4.84397H1044.86V5.84397ZM1212.57 5.84397H1211.57V26.634H1212.57H1213.57V5.84397H1212.57ZM1212.57 26.634L1212.65 25.6376L1141.97 19.6316L1141.88 20.628L1141.8 21.6244L1212.48 27.6304L1212.57 26.634ZM1141.88 20.628H1140.88V393H1141.88H1142.88V20.628H1141.88ZM1141.88 393V392H1114.16V393V394H1141.88V393ZM1114.16 393H1115.16V20.628H1114.16H1113.16V393H1114.16ZM1114.16 20.628L1114.07 19.6317L1044.78 25.6377L1044.86 26.634L1044.95 27.6302L1114.25 21.6242L1114.16 20.628Z" fill="white" fill-opacity="0.1" mask="url(#path-1-outside-1_113_236)"/>
</svg>
