<svg width="187" height="34" viewBox="0 0 187 34" fill="none" xmlns="http://www.w3.org/2000/svg">
<path d="M27.7404 26.6571C27.7404 28.5954 26.9688 30.4542 25.5953 31.8248C24.2219 33.1953 22.359 33.9653 20.4166 33.9653H5.37912e-07C-0.000397167 32.8504 0.219741 31.7463 0.646995 30.7162C1.07425 29.686 1.7002 28.7499 2.49005 27.9614C3.3337 27.1024 4.3599 26.4435 5.49285 26.0331C6.61959 25.634 7.78611 25.7914 8.95229 25.6733C10.986 25.4541 13.155 24.549 14.2817 22.7613C15.1309 21.4326 16.3896 20.4151 17.8683 19.8617C19.347 19.3083 20.9655 19.2491 22.4808 19.6929C23.9962 20.1367 25.3265 21.0596 26.2709 22.3226C27.2154 23.5857 27.723 25.1206 27.7179 26.6965" fill="#5355A4"/>
<path d="M0.0234759 14.9176C0.0234759 12.9793 0.795091 11.1205 2.16857 9.7499C3.54205 8.37935 5.40488 7.60938 7.34727 7.60938H27.7694C27.7672 8.72724 27.5436 9.83364 27.1114 10.865C26.6792 11.8963 26.0471 12.8322 25.2513 13.6189C24.4064 14.4777 23.3807 15.1383 22.2485 15.5528C21.1218 15.9463 19.9559 15.7889 18.7841 15.907C16.756 16.1262 14.5869 17.0313 13.4602 18.8246C12.611 20.1533 11.3523 21.1709 9.87363 21.7243C8.39492 22.2776 6.77585 22.3369 5.2605 21.8931C3.74514 21.4493 2.41541 20.5264 1.47096 19.2633C0.526514 18.0003 0.0183521 16.4653 0.0234759 14.8894" fill="#5355A4"/>
<path d="M182.125 21.1263C182.125 16.4603 179.421 13.256 175.291 13.256C171.162 13.256 168.458 16.4547 168.458 21.0195C168.458 25.5843 171.162 28.8393 175.291 28.8393C179.421 28.8393 182.125 25.6405 182.125 21.1151M182.08 0.736451H186.998V32.707H182.683L182.085 29.1822C181.223 30.3916 180.077 31.3715 178.747 32.036C177.417 32.7005 175.944 33.0294 174.457 32.9937C168.091 32.9937 163.37 28.4963 163.37 21.0195C163.37 13.8012 168.091 9.05088 174.457 9.05088C178.029 9.05088 180.547 10.5069 182.057 12.5644L182.08 0.736451ZM162.756 9.32634V13.9418H160.559C156.159 13.9418 154.739 17.371 154.739 20.9802V32.707H149.776V9.30953H154.17L154.734 12.8287C155.928 10.8667 157.804 9.30953 161.652 9.30953L162.756 9.32634ZM140.853 9.32634H145.799V32.707H140.83L140.853 9.32634ZM140.351 3.06384C140.342 2.46469 140.512 1.87642 140.839 1.37397C141.167 0.871517 141.636 0.477595 142.188 0.242357C142.741 0.00711919 143.351 -0.0587874 143.941 0.053023C144.531 0.164833 145.074 0.449287 145.501 0.870199C145.928 1.29111 146.221 1.82941 146.34 2.41658C146.46 3.00374 146.402 3.61323 146.174 4.16738C145.945 4.72153 145.557 5.19527 145.057 5.52834C144.558 5.86141 143.971 6.03872 143.371 6.03767C142.974 6.04852 142.578 5.97949 142.209 5.83461C141.839 5.68973 141.502 5.47197 141.218 5.19441C140.936 4.91685 140.714 4.58472 140.565 4.21837C140.416 3.85202 140.343 3.45919 140.351 3.06384ZM132.881 21.0026C132.881 16.4378 130.131 13.2335 126.007 13.2335C121.884 13.2335 119.18 16.4378 119.18 20.9633C119.18 25.5731 121.878 28.8336 126.007 28.8336C130.137 28.8336 132.881 25.6405 132.881 21.0195M137.951 21.0195C137.951 28.1984 133.275 32.9937 126.864 32.9937C123.202 32.9937 120.667 31.4421 119.219 29.3396L118.622 32.7126H114.307V0.725197H119.253V12.7837C120.116 11.5849 121.261 10.6163 122.587 9.96338C123.913 9.31044 125.38 8.99327 126.859 9.0397C133.27 9.0397 137.94 13.4695 137.94 21.0082M111.985 28.367V32.7126H107.197C102.69 32.7126 100.825 30.6101 100.825 26.3601V13.6551H92.3126V32.7126H87.3209V13.6551H83.2481V9.31516H87.3209V6.98214C87.3209 2.86706 89.3379 0.725197 93.8674 0.725197H97.7152V5.07075H94.5551C92.9551 5.07075 92.3016 5.75663 92.3016 7.35319V9.32078H100.819V2.78275H105.766V9.32078H111.445V13.6607H105.766V25.871C105.766 27.6981 106.453 28.3783 108.194 28.3783L111.985 28.367ZM77.8113 21.0251C77.8113 16.5278 75.0624 13.256 70.8991 13.256C66.7358 13.256 64.0484 16.494 64.0484 21.0082C64.0484 25.5224 66.7466 28.7831 70.9156 28.7831C75.0845 28.7831 77.8284 25.5506 77.8284 21.0082M58.944 21.0082C58.944 13.8855 63.7556 9.0397 70.8991 9.0397C78.0426 9.0397 82.8481 13.8855 82.8481 21.0082C82.8481 28.1309 78.0426 32.9993 70.8991 32.9993C63.7556 32.9993 58.944 28.1984 58.944 21.0251M41.4124 24.9603C41.5983 27.3889 43.705 29.1204 47.2711 29.1204C50.3415 29.1204 52.3415 27.9341 52.3415 26.0621C52.3415 23.5492 50.1838 23.3637 46.5895 22.9084C41.2318 22.2675 37.0122 21.115 37.0122 16.286C37.0122 11.8505 40.9954 8.97784 46.6291 9.01719C52.3811 9.01719 56.4768 11.665 56.7697 16.4659H51.9189C51.6429 14.3128 49.6263 12.8118 46.6968 12.8118C43.7672 12.8118 41.8405 13.998 41.8405 15.87C41.8405 18.0625 44.0939 18.3379 47.4741 18.6808C52.8261 19.3217 57.1807 20.4179 57.1807 25.6292C57.1807 30.1266 52.9162 32.9374 47.2431 32.9374C40.9671 32.9374 36.663 30.0142 36.5391 24.9378L41.4124 24.9603Z" fill="#131D46"/>
</svg>
